<svg xmlns="http://www.w3.org/2000/svg" viewBox="0 0 128.03 132.16"><defs><style>.cls-1{fill:#fff;}</style></defs><title>docsoc-sf-logo</title><g id="Lager_2" data-name="Lager 2"><g id="Lager_1-2" data-name="Lager 1"><path class="cls-1" d="M39.19,132.16c5.29-13.31,10.34-26.1,15.45-38.86,1.07-2.66-1.08-3-2.56-3.91-14.27-8.88-15.46-29.14-2.3-38.85A23.2,23.2,0,0,1,83.17,56a23.44,23.44,0,0,1-7.08,33.18c-1.59,1-4,1.37-2.83,4.28,5.09,12.75,10.14,25.52,15.37,38.7,12-6.94,23.46-13.56,34.9-20.28,3.52-2.07,4.47-5.41,4.45-9.39-.09-20-.15-40,0-60,0-5.11-1.81-8.29-6.25-10.82C104.58,21.94,87.51,11.94,70.47,1.9c-4.73-2.79-9-2.36-13.59.32Q31.08,17.38,5.15,32.29C1.73,34.24,0,36.65,0,40.6q.09,31.73,0,63.45c0,3.08.89,5.64,3.57,7.22C15.25,118.19,27,125,39.19,132.16Z"/></g></g></svg>