<svg xmlns="http://www.w3.org/2000/svg" viewBox="0 0 44 49.81"><defs><style>.cls-1{fill:#3288ca;}</style></defs><title>apply</title><g id="Lager_2" data-name="Lager 2"><g id="Lager_1-2" data-name="Lager 1"><path class="cls-1" d="M43.6,12.5a7.86,7.86,0,0,0-1.8-1.4C37.5,8.6,27.8,3,23.8.7A4.27,4.27,0,0,0,21.9,0,6,6,0,0,0,20,.8C15.6,3.3,5.3,9.2,1.5,11.3a3.29,3.29,0,0,0-1.1,1A3.44,3.44,0,0,0,0,14.1V35.6a2.76,2.76,0,0,0,.5,1.9,3.21,3.21,0,0,0,1.2,1C5.8,40.8,16,46.7,20.2,49.1a4.17,4.17,0,0,0,1.8.7,2.62,2.62,0,0,0,1.6-.5c4.1-2.3,14.6-8.4,18.7-10.8a3.44,3.44,0,0,0,1.3-1.2,3.23,3.23,0,0,0,.4-1.9V14.5A4.32,4.32,0,0,0,43.6,12.5ZM35.75,28.85a2.9,2.9,0,0,1-.86,2.1,2.85,2.85,0,0,1-2.12.88h-6q-2.62,0-3-3a3.22,3.22,0,0,1-1,2.24,3.77,3.77,0,0,1-2.51.74,5.27,5.27,0,0,1-3.68-1.74,5.69,5.69,0,0,1-1.78-4.22v-3a5.71,5.71,0,0,1,1.78-4.2,5.79,5.79,0,0,1,4.22-1.76h6V27.35a1.33,1.33,0,0,0,1.51,1.51h3a1.33,1.33,0,0,0,1.51-1.51v-6a7.29,7.29,0,0,0-2.19-5.26,7.11,7.11,0,0,0-5.28-2.25h-6a7.23,7.23,0,0,0-5.24,2.19,7.18,7.18,0,0,0-2.23,5.32v6A7.29,7.29,0,0,0,14,32.61a7.11,7.11,0,0,0,5.28,2.25H29.79v3H19.3a10.11,10.11,0,0,1-7.38-3.09,10.06,10.06,0,0,1-3.11-7.4v-6A10.06,10.06,0,0,1,11.92,14a10.11,10.11,0,0,1,7.38-3.09h6A10.06,10.06,0,0,1,32.66,14a10.1,10.1,0,0,1,3.09,7.4Z"/><path class="cls-1" d="M18.69,20.75a2.84,2.84,0,0,0-.9,2.1v3a2.86,2.86,0,0,0,.88,2.1,2.9,2.9,0,0,0,2.14.88,3,3,0,0,0,3-3v-6h-3A2.93,2.93,0,0,0,18.69,20.75Z"/></g></g></svg>