<svg xmlns="http://www.w3.org/2000/svg" viewBox="0 0 44 49.81"><defs><style>.cls-1{fill:#3288ca;}</style></defs><title>link</title><g id="Lager_2" data-name="Lager 2"><g id="Lager_1-2" data-name="Lager 1"><path class="cls-1" d="M43.6,12.5a7.86,7.86,0,0,0-1.8-1.4C37.5,8.6,27.8,3,23.8.7A4.27,4.27,0,0,0,21.9,0,6,6,0,0,0,20,.8C15.6,3.3,5.3,9.2,1.5,11.3a3.29,3.29,0,0,0-1.1,1A3.44,3.44,0,0,0,0,14.1V35.6a2.76,2.76,0,0,0,.5,1.9,3.21,3.21,0,0,0,1.2,1C5.8,40.8,16,46.7,20.2,49.1a4.17,4.17,0,0,0,1.8.7,2.62,2.62,0,0,0,1.6-.5c4.1-2.3,14.6-8.4,18.7-10.8a3.44,3.44,0,0,0,1.3-1.2,3.23,3.23,0,0,0,.4-1.9V14.5A4.32,4.32,0,0,0,43.6,12.5ZM26,33.94a13.3,13.3,0,0,1-4.63,3.83A9.31,9.31,0,0,1,8.63,31.38c-.16-.71-.22-1.45-.27-1.82a9.69,9.69,0,0,1,2.74-7c.48-.49,1-1,1.46-1.47a2.22,2.22,0,0,1,3-.12,2.13,2.13,0,0,1,.29,3c-.5.61-1.1,1.15-1.66,1.71a4.88,4.88,0,0,0,3.93,8.36,5,5,0,0,0,3-1.5c.49-.5,1-1,1.49-1.49a2.22,2.22,0,0,1,3-.07A2.08,2.08,0,0,1,26,33.94Zm.67-11.06a3.06,3.06,0,0,1-.71,1.18c-1.63,1.68-3.29,3.32-4.95,5a2,2,0,0,1-1.5.58,2.18,2.18,0,0,1-2-1.29,2,2,0,0,1,.17-2.15,2.91,2.91,0,0,1,.33-.41q2.46-2.47,4.93-4.93a2.22,2.22,0,0,1,2.66-.34A2.12,2.12,0,0,1,26.64,22.88Zm9-1.67a9.1,9.1,0,0,1-2.75,5.91l-1.56,1.57a2.2,2.2,0,0,1-3.49-2.56,3.45,3.45,0,0,1,.57-.75c.42-.43.87-.81,1.3-1.23a4.71,4.71,0,0,0,1.29-5,4.58,4.58,0,0,0-3.86-3.31A4.67,4.67,0,0,0,23,17.1c-.54.52-1.06,1.06-1.59,1.59a2.21,2.21,0,0,1-3,.14,2.08,2.08,0,0,1-.32-3,13,13,0,0,1,4.7-3.8,10.19,10.19,0,0,1,3.59-.72A9.32,9.32,0,0,1,35.62,21.21Z"/></g></g></svg>